<?xml version="1.0" encoding="utf-8"?>
<svg version="1.1" xmlns:xlink="http://www.w3.org/1999/xlink" width="700px" height="700px" xmlns="http://www.w3.org/2000/svg">
  <g transform="matrix(1 0 0 1 -250 -63 )">
    <path d="M 250 63  L 950 63  L 950 763  L 250 763  L 250 63  " fill-rule="nonzero" fill="#cccccc" stroke="none" />
    <path d="M 299 112  L 901 112  L 901 714  L 299 714  L 299 112  " fill-rule="nonzero" fill="#ffffff" stroke="none" />
    <path d="M 666.5 273  C 637.1 273  614 249.9  614 220.5  C 614 191.1  637.1 168  666.5 168  C 695.9 168  719 191.1  719 220.5  C 719 249.9  695.9 273  666.5 273  " fill-rule="nonzero" fill="#cccccc" stroke="none" />
    <path d="M 317 697  L 317 385.15  L 458.75 243.39999999999998  L 657.2 356.8  L 770.6 328.45  L 884 356.8  L 884 697  L 317 697  " fill-rule="nonzero" fill="#169bd5" stroke="none" />
  </g>
</svg>