<?xml version="1.0" encoding="utf-8"?>
<svg version="1.1" xmlns:xlink="http://www.w3.org/1999/xlink" width="250px" height="250px" xmlns="http://www.w3.org/2000/svg">
  <g transform="matrix(1 0 0 1 -150 -157 )">
    <path d="M 150 157  L 400 157  L 400 407  L 150 407  L 150 157  " fill-rule="nonzero" fill="#cccccc" stroke="none" />
    <path d="M 168 175  L 382 175  L 382 389  L 168 389  L 168 175  " fill-rule="nonzero" fill="#ffffff" stroke="none" />
    <path d="M 298.75 232  C 288.25 232  280 223.75  280 213.25  C 280 202.75  288.25 194.5  298.75 194.5  C 309.25 194.5  317.5 202.75  317.5 213.25  C 317.5 223.75  309.25 232  298.75 232  " fill-rule="nonzero" fill="#cccccc" stroke="none" />
    <path d="M 175 383  L 175 272.45  L 225.25 222.2  L 295.6 262.4  L 335.8 252.35  L 376 262.4  L 376 383  L 175 383  " fill-rule="nonzero" fill="#169bd5" stroke="none" />
  </g>
</svg>